HIERARCHY
ROOT Hips
{
  OFFSET 0.0 0.0 0.0
  CHANNELS 6 XPOSITION YPOSITION ZPOSITION ZROTATION XROTATION YROTATION 
  JOINT LeftUpLeg
  {
    OFFSET 0.08945800000000001 -0.0866707 0.0010165200000000001
    CHANNELS 3 ZROTATION XROTATION YROTATION 
    JOINT LeftLeg
    {
      OFFSET 0.0 -0.444227 0.013727000000000001
      CHANNELS 3 ZROTATION XROTATION YROTATION 
      JOINT LeftFoot
      {
        OFFSET -0.0025354900000000005 -0.42092399999999996 -0.014605900000000002
        CHANNELS 3 ZROTATION XROTATION YROTATION 
        End Site
        {
          OFFSET -0.0004 -0.0441509 0.08499100000000001
        }
      }
    }
  }
  JOINT Spine
  {
    OFFSET 0.0 0.118905 0.0
    CHANNELS 3 ZROTATION XROTATION YROTATION 
    JOINT Spine1
    {
      OFFSET 0.0 0.25657399999999997 0.00127663
      CHANNELS 3 ZROTATION XROTATION YROTATION 
      End Site
      {
        OFFSET -0.0029 0.21508359999999999 0.02525291
      }
      JOINT RightArm
      {
        OFFSET -0.162727 -0.05365632 0.0010212299999999997
        CHANNELS 3 ZROTATION XROTATION YROTATION 
        JOINT RightForeArm
        {
          OFFSET -0.26364 0.00099144 -0.0142434
          CHANNELS 3 ZROTATION XROTATION YROTATION 
          End Site
          {
            OFFSET -0.220324 0.0008536199999999999 0.010221599999999999
          }
        }
      }
      JOINT LeftArm
      {
        OFFSET 0.162727 -0.053656319900000006 0.0010212299999999997
        CHANNELS 3 ZROTATION XROTATION YROTATION 
        JOINT LeftForeArm
        {
          OFFSET 0.26259699999999997 0.00099144 -0.0142434
          CHANNELS 3 ZROTATION XROTATION YROTATION 
          End Site
          {
            OFFSET 0.220902 0.0008536199999999999 0.010221599999999999
          }
        }
      }
    }
  }
  JOINT RightUpLeg
  {
    OFFSET -0.08945800000000001 -0.0866707 0.0010165200000000001
    CHANNELS 3 ZROTATION XROTATION YROTATION 
    JOINT RightLeg
    {
      OFFSET 0.0 -0.444227 0.013727000000000001
      CHANNELS 3 ZROTATION XROTATION YROTATION 
      JOINT RightFoot
      {
        OFFSET 0.0025354900000000005 -0.42092399999999996 -0.014605900000000002
        CHANNELS 3 ZROTATION XROTATION YROTATION 
        End Site
        {
          OFFSET 0.0004 -0.0441509 0.08499100000000001
        }
      }
    }
  }
}
MOTION
Frames: 13
Frame Time: 0.033333
1.6699700000000002 1.0362173698552295 0.0719303 -2.498100067466909 0.10960900150040684 -91.77760021710901 -1.4630499989920032 -0.7891249452620711 4.26237997843328 1.8040898819872024 12.849799663858715 10.21549986136964 -0.9835170382391 -4.877975536816421 0.021174338481559956 4.003299804157296 -9.915669924731713 0.8609279492420648 -2.709730063805169 26.044800503464458 1.3163900426993738 80.93296736242127 -22.682586950559614 15.312401317218363 7.986319922895177 33.15800026928398 6.367900195758309 -88.55262394764993 -15.723886063765782 -20.95881966632494 -15.50250084974545 26.89780063079255 -3.0837700057752846 -0.6047320357865295 -2.4176101300797166 -4.192549831906362 -2.527270097864741 14.018700309168127 -2.1782600244383716 2.797944731700234 -4.584998841236955 -0.14553474932793592 
1.66947 1.0361543698552294 0.0718891 -2.537869911126366 0.06177820059901247 -91.96549872117606 -1.517239972814944 -0.6873540060509704 4.246970217892085 1.7821899476306142 12.82660007256912 10.351500026801995 -0.9963910910509278 -4.903435493834467 0.0211751572371465 3.942609731400324 -9.627319828541284 0.9834040199526775 -2.545229866843878 25.829598318190282 1.394789942200542 80.71713338464886 -22.262125627895507 15.548427041724617 7.915899818778699 32.86790164466603 6.8668399650990395 -87.5366196482322 -12.206439386499472 -20.451099261919335 -14.890799352962864 23.6240994993419 -5.241299765752433 -0.6679359916840357 -2.4288400282922757 -4.178979953572839 -2.53899988054718 14.144800115398548 -1.9927798342243284 2.7765974023361824 -4.645078465836857 -0.14554771601518837 
1.6684200000000002 1.0360283698552293 0.07171000000000001 -2.547790120565575 0.00558557979310633 -92.21379658807354 -1.5837300501160196 -0.5853530282030579 4.221670343432712 1.7751800391080657 12.81819979366365 10.553999767767241 -1.0426294440195043 -4.956735728796307 0.021176831433905946 3.905159804181144 -9.347490393340447 1.1533999578748901 -2.410370129559503 25.691700213942312 1.5287800043045034 80.48868404747944 -21.361754723578795 16.149152424510994 7.8355605724400705 32.29110241454221 7.660509654201814 -86.14048117055741 -6.914796003922168 -20.171262996529325 -14.222000889813556 19.037700896211916 -8.036439851024731 -0.7190840233662349 -2.4689599191466955 -4.095360081998489 -2.5647400887646077 14.320000444024899 -1.8309099004237268 2.727711817455697 -4.754418268504536 -0.14557064784171816 
1.66704 1.0359423698552295 0.0713875 -2.4829799496352045 -0.007269269781787405 -92.33900078574904 -1.6054298812742676 -0.5389149989229642 4.211960375753892 1.7978199817725422 12.79020028693483 10.71560033598245 -1.0814099774663672 -5.030115866144339 0.02117926435529243 3.9479697223514916 -9.291129379856795 1.2689600351640415 -2.4440901331616214 25.743799189383875 1.655290048771949 80.44275785550028 -20.460371243717628 16.893841119528314 7.830689793788205 31.716000486427134 8.215580345028533 -85.28306020328903 -3.543917288838105 -20.443078912286445 -13.915500419677464 16.32080020099529 -9.558639715115866 -0.7007020099581737 -2.4941199881714957 -4.006699957703493 -2.585620190500748 14.382100523958654 -1.8101499673282961 2.6546864230576825 -4.857998514154603 -0.14559261917289593 
1.66547 1.0359903698552293 0.0710178 -2.3892400855884226 0.003662729796822332 -92.3485972015329 -1.5964799855840237 -0.48856199058798405 4.222479720849359 1.8226799493606844 12.701100469212014 10.811499607024013 -1.0806203435652904 -5.093055632459183 0.021181277059962405 4.042220356482144 -9.218010497244515 1.321080141503351 -2.594910101545612 25.692499346075202 1.7585999683412712 80.51269216241204 -19.846661671319055 17.467855340018062 7.868570022925096 31.165398446864895 8.518159432807389 -84.87388406068106 -2.1351495779445435 -20.75822725568542 -13.831899758010154 15.110099651739048 -10.143500276007597 -0.6595159692629967 -2.4506298258484973 -4.013449892150757 -2.593799982362073 14.29699978199488 -1.7905599175716418 2.621389037410459 -4.921008716795263 -0.1456060260871847 
1.66386 1.0360863698552294 0.0706908 -2.2934400657332352 -0.0007239240232280239 -92.34180116330874 -1.6046999048067225 -0.43475997684598533 4.2128500078932865 1.8463999156876694 12.596300607908276 10.873300012407935 -1.0939205361483035 -5.128225557156049 0.021182435990986122 4.15570992595743 -8.942040118924735 1.3297700631183114 -2.8009598333319716 25.400800749644176 1.8437801112541465 80.63773926573663 -19.43992049115021 17.828695941417127 7.827629869040039 30.611302765542195 8.83731026705999 -84.49019135386644 -1.1034579348288742 -20.79348810727561 -13.720100660354447 14.071700015806487 -10.698500103621676 -0.6548330208133067 -2.3992100273425256 -4.086629819578744 -2.5831700735794176 14.19830013339361 -1.7079099328594332 2.6365409583104857 -4.965948373326185 -0.14561575110262406 
1.6622800000000002 1.0360533698552294 0.0703927 -2.159060149238054 -0.03608860181549828 -92.3373000686457 -1.6485699964023028 -0.45205302864867913 4.145059953494087 1.8876600212466588 12.535300188430893 10.91509906258112 -1.163580888441323 -5.1704356993399045 0.021183903414440618 4.296130077556429 -8.625920181116328 1.2982100001195038 -3.096550143486025 25.129900079235835 1.9216600626047475 80.91240849301953 -19.12656677995566 18.197037798072163 7.690899727140139 30.3060001398318 9.188790094201554 -84.1951681628569 -0.46162553877045204 -20.778441200534072 -13.5918997171806 13.541200076745241 -11.1011004816062 -0.7057010147395354 -2.4524199757412752 -4.160979843788917 -2.5310000214818027 14.223799790886208 -1.6455700492527863 2.6120754341469117 -5.065948319190696 -0.14563833608361004 
1.66076 1.0358833698552294 0.070053 -1.9764900464972595 -0.09364290070697313 -92.27119749785831 -1.7106200238560472 -0.5561890275816025 4.038350200543685 1.943559783517924 12.524300168772587 10.916099685294528 -1.244591414309317 -5.258255283480167 0.021186846598982872 4.488959978204229 -8.426210572427031 1.242729974317077 -3.557889934889247 25.109699794765525 2.035050167450245 81.33394727802519 -18.79470325611037 18.61950548880496 7.56092037346115 30.27879891146222 9.453840707585776 -84.32102122850355 -1.295087216286633 -21.028931558155122 -13.609099841057985 14.392699270003222 -10.739999479245027 -0.7906390061019926 -2.598959976836606 -4.229079818021706 -2.4442299385961954 14.348099842270331 -1.6628200121667709 2.5717440208716327 -5.258248026404173 -0.14454901429248557 
1.65933 1.0356583698552295 0.0696808 -1.7775000622700485 -0.14624000638037943 -92.12589888364464 -1.7777099838653205 -0.7402420284242304 3.9046501013143318 2.0282799558788813 12.624599789186933 10.899600509580715 -1.3531101001727144 -5.420495755043241 0.020028754341168825 4.704759805030782 -8.168670605808884 1.2197099956583126 -4.0858200152752735 25.139699693147513 2.2104199701453764 81.61953114760178 -18.248066141361328 18.802824351033518 7.459609885049644 30.00829951466762 9.803239888351426 -84.80745364081352 -3.3138227298523617 -21.454648711385552 -13.775500324712421 16.12669988516187 -9.802319520360765 -0.8341060098148364 -2.7722499869294692 -4.194259940519805 -2.4085498841456947 14.503099032652722 -1.822330115609133 2.6915256886763808 -5.511777391319053 -0.1386904462123336 
1.6579400000000002 1.0352053698552295 0.0694024 -1.5186600118320719 -0.1609170023494658 -91.93220154897224 -1.8562400838475421 -1.1371099567044096 3.6530097105917836 2.208739957052965 13.03990005015945 10.927400233276314 -1.647459450331941 -5.785125403884372 0.012530271348262659 4.855499945578847 -7.636109657165589 1.2698000417102473 -4.393199872267004 24.830599482258584 2.3836497891961788 81.52894917882907 -17.45431278244122 18.472294421623676 7.274469923633632 29.20010030565294 10.490899918893724 -85.24054910589486 -5.037679019989659 -21.665153434058052 -13.905999626541977 17.62729927600284 -9.015340001550019 -0.7503730132323576 -3.0739799968171293 -3.8313899191635983 -2.4970100119640573 14.7989999029706 -2.320879923836938 2.986807146213903 -5.837775490214592 -0.1274436726300481 
1.65629 1.0342133698552294 0.0693536 -1.102939907669011 -0.14087399899304848 -91.69819926800761 -1.9601998318833675 -1.8907397962320998 3.140649900192447 2.490900194308069 13.917600702847244 11.042400128331819 -2.1968353642164558 -6.540495234103123 -0.007936708997271242 4.826309851500329 -6.955950028105611 1.3415099843627998 -4.197460311032779 24.170700755597803 2.3995899566151073 81.1465610381459 -16.699380511216173 17.819837186063623 7.0150200653688195 28.39430020058422 11.280100102958372 -85.43134361017 -5.771401419407701 -21.431629266335317 -13.920300335116691 18.439099702257412 -8.695530054042512 -0.5738190264898748 -3.6762699198102617 -3.074969947359958 -2.6336799628218968 15.426001023494015 -3.2654299858091753 3.245451682486888 -6.337703075664036 -0.11155741301275215 
1.6540199999999998 1.0328143698552295 0.0695867 -0.5655330465312973 -0.13021400802957586 -91.46039940186445 -2.1003497641233286 -2.8393700424597728 2.3532400794639896 2.739319937393545 15.069900573378938 11.340699248822016 -2.819268155402191 -7.630496949215131 -0.043857435068285315 4.684159954494024 -6.337960061531557 1.3903600309152597 -3.6939298007961527 23.48959941420601 2.2893099357194933 80.71915512064318 -16.213246919682394 17.21090191589489 6.8226405303194175 28.07240021519069 11.777100525461641 -85.47408693399593 -5.925251003575415 -20.904955086982927 -13.91100103256172 18.553401210470284 -8.66328046210265 -0.44566101212217857 -4.484890039232548 -2.175699984160086 -2.681900031145129 16.311000587083615 -4.375490045522807 3.403616452106169 -7.012001121755674 -0.09201006527862357 
1.65114 1.0315823698552296 0.0700974 -0.05295909902931035 -0.14530600469180663 -91.3244991279487 -2.269500039248929 -3.6260398548803416 1.535080000040194 2.8582499659861575 16.07139925854686 11.946799990485193 -3.301845139369098 -8.695900591804985 -0.08500646000682258 4.684790039444957 -5.686739943984923 1.4454000431247498 -3.442210009124503 22.95829948923823 2.2773598794363212 80.35181388670155 -15.764964528981531 16.66916033923345 6.703369632598539 27.78269944909189 12.140100320412078 -85.33217609361058 -5.734463756376272 -20.289394533319282 -13.914699579997281 17.845100348256207 -8.858799749736143 -0.4134799888782817 -5.1871598444095035 -1.420360036018954 -2.6603098031787185 17.0835991425969 -5.236200175763372 3.625232185010988 -7.641798350970563 -0.0694870896036834 
